<svg xmlns="http://www.w3.org/2000/svg" viewBox="0 0 290 240" width="290" height="240" data-copyright="© 2026 Sensory App House"><g transform="translate(0.000,10.224) scale(0.9574)"><!--SAH-COPYRIGHT © 2026 Sensory App House. All rights reserved.--><metadata id="sah-copyright"><rdf:RDF xmlns:rdf="http://www.w3.org/1999/02/22-rdf-syntax-ns#" xmlns:dc="http://purl.org/dc/elements/1.1/" xmlns:cc="http://creativecommons.org/ns#"><cc:Work rdf:about=""><dc:rights><cc:Agent><dc:title>© 2026 Sensory App House. All rights reserved.</dc:title></cc:Agent></dc:rights><dc:creator><cc:Agent><dc:title>Sensory App House (PiCom)</dc:title></cc:Agent></dc:creator><dc:date>2026</dc:date></cc:Work></rdf:RDF></metadata><path d="M155 90 Q120 90 110 130 Q105 160 130 165 Q145 165 145 145 Q160 165 195 160 Q220 155 215 120 Q210 90 175 90 Z" fill="#5ab048" stroke="#1a1a1a" stroke-width="4" stroke-linejoin="round"></path><path d="M205 100 L235 65 L228 100 Z" fill="#3a7838" stroke="#1a1a1a" stroke-width="2.5"></path><circle cx="180" cy="110" r="14" fill="#f4c84a" stroke="#1a1a1a" stroke-width="3"></circle><circle cx="180" cy="110" r="5" fill="#1a1a1a"></circle><path d="M110 150 Q70 155 65 120 Q60 100 75 95" fill="none" stroke="#5ab048" stroke-width="9" stroke-linecap="round"></path><path d="M75 95 Q88 92 90 105 Q88 115 78 112" fill="none" stroke="#3a7838" stroke-width="7" stroke-linecap="round"></path><g fill="#3a7838"><circle cx="160" cy="125" r="5"></circle><circle cx="190" cy="135" r="5"></circle></g></g><g transform="translate(0,0) scale(0.5664,0.4688) translate(360 8) scale(0.2812)"><defs><radialGradient id="pl318" cx="40%" cy="35%" r="65%"><stop offset="0%" stop-color="#7ed957"/><stop offset="100%" stop-color="#3aa324"/></radialGradient></defs><path d="M 256.0,56.0 L 281.0,212.7 L 429.2,156.0 L 306.0,256.0 L 429.2,356.0 L 281.0,299.3 L 256.0,456.0 L 231.0,299.3 L 82.8,356.0 L 206.0,256.0 L 82.8,156.0 L 231.0,212.7 Z" fill="url(#pl318)" stroke="#1a1a1a" stroke-width="14" stroke-linejoin="round"/></g></svg>