<svg xmlns="http://www.w3.org/2000/svg" viewBox="0 0 290 240" width="290" height="240" data-copyright="© 2026 Sensory App House"><!--SAH-COPYRIGHT © 2026 Sensory App House. All rights reserved.--><metadata id="sah-copyright"><rdf:RDF xmlns:rdf="http://www.w3.org/1999/02/22-rdf-syntax-ns#" xmlns:dc="http://purl.org/dc/elements/1.1/" xmlns:cc="http://creativecommons.org/ns#"><cc:Work rdf:about=""><dc:rights><cc:Agent><dc:title>© 2026 Sensory App House. All rights reserved.</dc:title></cc:Agent></dc:rights><dc:creator><cc:Agent><dc:title>Sensory App House (PiCom)</dc:title></cc:Agent></dc:creator><dc:date>2026</dc:date></cc:Work></rdf:RDF></metadata>
<rect x="20" y="60" width="250" height="160" fill="#fcf5e0" stroke="#1a1a1a" stroke-width="3.5"></rect>
<rect x="20" y="60" width="250" height="14" fill="#a0734a" stroke="#1a1a1a" stroke-width="3"></rect>
<g>
<rect x="35" y="80" width="18" height="60" fill="#e8443a" stroke="#1a1a1a" stroke-width="2"></rect>
<rect x="55" y="85" width="18" height="55" fill="#5a8acc" stroke="#1a1a1a" stroke-width="2"></rect>
<rect x="75" y="78" width="18" height="62" fill="#5ab048" stroke="#1a1a1a" stroke-width="2"></rect>
<rect x="95" y="85" width="18" height="55" fill="#9b6dc8" stroke="#1a1a1a" stroke-width="2"></rect>
<rect x="115" y="82" width="18" height="58" fill="#f4ca3a" stroke="#1a1a1a" stroke-width="2"></rect>
<rect x="135" y="80" width="18" height="60" fill="#e8443a" stroke="#1a1a1a" stroke-width="2"></rect>
<rect x="155" y="85" width="18" height="55" fill="#5a8acc" stroke="#1a1a1a" stroke-width="2"></rect>
<rect x="175" y="78" width="18" height="62" fill="#5ab048" stroke="#1a1a1a" stroke-width="2"></rect>
<rect x="195" y="82" width="18" height="58" fill="#9b6dc8" stroke="#1a1a1a" stroke-width="2"></rect>
<rect x="215" y="85" width="18" height="55" fill="#f4ca3a" stroke="#1a1a1a" stroke-width="2"></rect>
<rect x="235" y="80" width="18" height="60" fill="#e8443a" stroke="#1a1a1a" stroke-width="2"></rect>
</g>
<rect x="20" y="140" width="250" height="14" fill="#a0734a" stroke="#1a1a1a" stroke-width="3"></rect>
<g>
<rect x="35" y="160" width="18" height="58" fill="#5ab048" stroke="#1a1a1a" stroke-width="2"></rect>
<rect x="55" y="158" width="18" height="60" fill="#e8443a" stroke="#1a1a1a" stroke-width="2"></rect>
<rect x="75" y="162" width="18" height="56" fill="#9b6dc8" stroke="#1a1a1a" stroke-width="2"></rect>
<rect x="95" y="160" width="18" height="58" fill="#5a8acc" stroke="#1a1a1a" stroke-width="2"></rect>
<rect x="115" y="158" width="18" height="60" fill="#f4ca3a" stroke="#1a1a1a" stroke-width="2"></rect>
<rect x="135" y="162" width="18" height="56" fill="#e8443a" stroke="#1a1a1a" stroke-width="2"></rect>
<rect x="155" y="160" width="18" height="58" fill="#5ab048" stroke="#1a1a1a" stroke-width="2"></rect>
<rect x="175" y="158" width="18" height="60" fill="#9b6dc8" stroke="#1a1a1a" stroke-width="2"></rect>
<rect x="195" y="162" width="18" height="56" fill="#5a8acc" stroke="#1a1a1a" stroke-width="2"></rect>
<rect x="215" y="158" width="18" height="60" fill="#f4ca3a" stroke="#1a1a1a" stroke-width="2"></rect>
<rect x="235" y="160" width="18" height="58" fill="#e8443a" stroke="#1a1a1a" stroke-width="2"></rect>
</g>
</svg>