<svg xmlns="http://www.w3.org/2000/svg" viewBox="0 0 512 512" data-copyright="© 2026 Sensory App House"><!--SAH-COPYRIGHT © 2026 Sensory App House. All rights reserved.--><metadata id="sah-copyright"><rdf:RDF xmlns:rdf="http://www.w3.org/1999/02/22-rdf-syntax-ns#" xmlns:dc="http://purl.org/dc/elements/1.1/" xmlns:cc="http://creativecommons.org/ns#"><cc:Work rdf:about=""><dc:rights><cc:Agent><dc:title>© 2026 Sensory App House. All rights reserved.</dc:title></cc:Agent></dc:rights><dc:creator><cc:Agent><dc:title>Sensory App House (PiCom)</dc:title></cc:Agent></dc:creator><dc:date>2026</dc:date></cc:Work></rdf:RDF></metadata><metadata id="sah">{"v":1,"fig":[["h1","mc"],["h2","ma"],["h3","ma"]]}</metadata><g data-fit="1" transform="translate(256 256) scale(0.9485) translate(-268.50 -271.00)">
<line x1="61" y1="345" x2="55" y2="455" stroke-linecap="round" stroke="#1a1a1a" stroke-width="31.5" data-part="ink"/><line x1="61" y1="345" x2="55" y2="455" stroke-linecap="round" stroke="#565660" stroke-width="23.5" data-part="leg"/>
<line x1="83" y1="345" x2="89" y2="455" stroke-linecap="round" stroke="#1a1a1a" stroke-width="31.5" data-part="ink"/><line x1="83" y1="345" x2="89" y2="455" stroke-linecap="round" stroke="#565660" stroke-width="23.5" data-part="leg"/>
<ellipse cx="55" cy="460" rx="14" ry="8" fill="#2e3547" stroke="#1a1a1a" stroke-width="5.0" data-part="shoe"/>
<ellipse cx="89" cy="460" rx="14" ry="8" fill="#2e3547" stroke="#1a1a1a" stroke-width="5.0" data-part="shoe"/>
<polygon data-part="top" points="42,269 102,269 101,347 43,347" fill="#5d7a99" stroke="#1a1a1a" stroke-width="6" stroke-linejoin="round"/>
<polygon data-part="lower" points="43,347 101,347 101,376 43,376" fill="#565660" stroke="#1a1a1a" stroke-width="6" stroke-linejoin="round"/>
<line x1="50" y1="271" x2="36" y2="347" stroke-linecap="round" stroke="#1a1a1a" stroke-width="25.8" data-part="ink"/><line x1="50" y1="271" x2="36" y2="347" stroke-linecap="round" stroke="#f1decb" stroke-width="17.8" data-part="arm"/><line x1="50" y1="271" x2="45" y2="298" stroke-linecap="round" stroke="#1a1a1a" stroke-width="28.6" data-part="ink"/><line x1="50" y1="271" x2="45" y2="298" stroke-linecap="round" stroke="#4a637f" stroke-width="20.6" data-part="sleeve"/><circle cx="36" cy="347" r="9.8" fill="#f1decb" stroke="#1a1a1a" stroke-width="5.0" data-part="hand"/>
<line x1="94" y1="271" x2="108" y2="347" stroke-linecap="round" stroke="#1a1a1a" stroke-width="25.8" data-part="ink"/><line x1="94" y1="271" x2="108" y2="347" stroke-linecap="round" stroke="#f1decb" stroke-width="17.8" data-part="arm"/><line x1="94" y1="271" x2="99" y2="298" stroke-linecap="round" stroke="#1a1a1a" stroke-width="28.6" data-part="ink"/><line x1="94" y1="271" x2="99" y2="298" stroke-linecap="round" stroke="#4a637f" stroke-width="20.6" data-part="sleeve"/><circle cx="108" cy="347" r="9.8" fill="#f1decb" stroke="#1a1a1a" stroke-width="5.0" data-part="hand"/>
<line x1="72" y1="269" x2="72" y2="246" stroke-linecap="round" stroke="#1a1a1a" stroke-width="20.6" data-part="ink"/><line x1="72" y1="269" x2="72" y2="246" stroke-linecap="round" stroke="#f1decb" stroke-width="12.6" data-part="neck"/>
<g id="h1" data-fig="mc" data-part="head"><g transform="translate(-5.20 203.43) scale(1.206)"><defs><filter id="oban8228" x="-45%" y="-45%" width="190%" height="190%"><feMorphology in="SourceAlpha" operator="dilate" radius="1.0000" result="d"/><feFlood flood-color="#1a1a1a" result="ink"/><feComposite in="ink" in2="d" operator="in"/></filter><defs></defs><g id="haan8228"><g transform="matrix(1.0207,0,0,1.0207,-1.32509,-2.64997)"><g transform="matrix(1,0,0,1,28.02,0)"><path d="M35.98,57.47C33.06,57.47 30.69,55.1 30.69,52.18L30.69,47.66L41.27,47.66L41.27,52.18C41.27,55.1 38.9,57.47 35.98,57.47Z" fill="#f1decb" fill-rule="nonzero" /></g></g><g transform="matrix(1.0207,0,0,1.0207,-1.32509,-2.64997)"><g transform="matrix(1,0,0,1,28.02,0)"><path d="M51.89,29.71C51.89,29.71 54.81,30.22 54.81,33.36C54.81,36.13 52.68,37.23 50.55,37.23L50.55,29.72L51.89,29.72L51.89,29.71ZM20.07,29.71C20.07,29.71 17.15,30.22 17.15,33.36C17.15,36.13 19.28,37.23 21.41,37.23L21.41,29.72L20.07,29.72L20.07,29.71Z" fill="#c7a186" fill-rule="nonzero" /></g></g><g transform="matrix(1.0207,0,0,1.0207,-1.32509,-2.64997)"><g transform="matrix(1,0,0,1,28.02,0)"><path d="M35.98,9.13C23.41,9.13 20.12,18.88 20.12,32.57C20.12,46.77 30.892,50.44 35.98,50.44C41.068,50.44 51.84,46.87 51.84,32.57C51.85,18.88 48.56,9.13 35.98,9.13Z" fill="#f1decb" fill-rule="nonzero" /></g></g><g transform="matrix(1.0207,0,0,1.0207,-1.32509,-2.64997)"><g transform="matrix(1,0,0,1,28.02,0)"><path d="M38.2,38.59C37.42,38.81 36.61,38.92 35.98,38.92C35.35,38.92 34.54,38.81 33.76,38.59C33.43,38.5 33.29,38.81 33.41,39.02C33.66,39.46 34.66,40.34 35.97,40.34C37.29,40.34 38.29,39.46 38.53,39.02C38.67,38.81 38.53,38.5 38.2,38.59Z" fill="#c7a186" fill-rule="nonzero" /></g></g><path d="M42.3 14.8 L41.6 24.5 L48.9 19.2 Z" fill="#2e2b36" stroke="#1a1a1a" stroke-width="1.2" stroke-linejoin="round"/><path d="M84.7 14.8 L85.4 24.5 L78.1 19.2 Z" fill="#2e2b36" stroke="#1a1a1a" stroke-width="1.2" stroke-linejoin="round"/><path d="M 42.4 18.0 L 41.2 9.3 L 48.6 7.9 L 50.9 -0.6 L 58.2 2.2 L 63.5 -4.1 L 68.8 2.2 L 76.1 -0.6 L 78.4 7.9 L 85.8 9.3 L 84.6 18.0 L 78.9 19.2 L 73.6 26.7 L 68.2 19.2 L 63.5 27.7 L 58.8 19.2 L 53.4 26.7 L 48.1 19.2 Z" fill="#2e2b36" stroke="#1a1a1a" stroke-width="1.6" stroke-linejoin="round"/><path d="M53.30 28.28 C54.20 26.58 57.20 26.58 58.10 28.28 C57.90 30.88 53.50 30.88 53.30 28.28 Z" fill="#FFFFFF" stroke="#1a1a1a" stroke-width="0.6"/><circle cx="56.30" cy="27.88" r="0.55" fill="#FFFFFF"/><path d="M53.10 26.48 L58.10 26.18 L58.10 26.88 L53.10 27.18 Z" fill="#1a1a1a"/><path d="M53.50 25.28 L57.70 24.98 L57.70 25.58 L53.50 25.88 Z" fill="#1a1a1a"/><path d="M68.90 28.28 C69.80 26.58 72.80 26.58 73.70 28.28 C73.50 30.88 69.10 30.88 68.90 28.28 Z" fill="#FFFFFF" stroke="#1a1a1a" stroke-width="0.6"/><circle cx="71.90" cy="27.88" r="0.55" fill="#FFFFFF"/><path d="M68.70 26.48 L73.70 26.18 L73.70 26.88 L68.70 27.18 Z" fill="#1a1a1a"/><path d="M69.10 25.28 L73.30 24.98 L73.30 25.58 L69.10 25.88 Z" fill="#1a1a1a"/><path d="M63.20 31.48 L64.50 32.28 L63.10 32.58" fill="none" stroke="#1a1a1a" stroke-width="0.5"/><path d="M61.90 34.08 L65.10 34.08" fill="none" stroke="#1a1a1a" stroke-width="0.7" stroke-linecap="round"/></g></defs><use href="#haan8228" filter="url(#oban8228)"/><use href="#haan8228"/></g></g>




<line x1="425" y1="303" x2="416" y2="455" stroke-linecap="round" stroke="#1a1a1a" stroke-width="38.4" data-part="ink"/><line x1="425" y1="303" x2="416" y2="455" stroke-linecap="round" stroke="#565660" stroke-width="30.4" data-part="leg"/>
<line x1="455" y1="303" x2="464" y2="455" stroke-linecap="round" stroke="#1a1a1a" stroke-width="38.4" data-part="ink"/><line x1="455" y1="303" x2="464" y2="455" stroke-linecap="round" stroke="#565660" stroke-width="30.4" data-part="leg"/>
<ellipse cx="416" cy="460" rx="20" ry="11" fill="#2e3547" stroke="#1a1a1a" stroke-width="5.0" data-part="shoe"/>
<ellipse cx="464" cy="460" rx="20" ry="11" fill="#2e3547" stroke="#1a1a1a" stroke-width="5.0" data-part="shoe"/>
<polygon data-part="top" points="398,197 482,197 479,305 401,305" fill="#5d7a99" stroke="#1a1a1a" stroke-width="6" stroke-linejoin="round"/>
<line x1="410" y1="199" x2="396" y2="305" stroke-linecap="round" stroke="#1a1a1a" stroke-width="32.7" data-part="ink"/><line x1="410" y1="199" x2="396" y2="305" stroke-linecap="round" stroke="#f1decb" stroke-width="24.7" data-part="arm"/><line x1="410" y1="199" x2="405" y2="236" stroke-linecap="round" stroke="#1a1a1a" stroke-width="36.6" data-part="ink"/><line x1="410" y1="199" x2="405" y2="236" stroke-linecap="round" stroke="#4a637f" stroke-width="28.6" data-part="sleeve"/><circle cx="396" cy="305" r="13.6" fill="#f1decb" stroke="#1a1a1a" stroke-width="5.0" data-part="hand"/>
<line x1="470" y1="199" x2="490" y2="155" stroke-linecap="round" stroke="#1a1a1a" stroke-width="32.7" data-part="ink"/><line x1="470" y1="199" x2="490" y2="155" stroke-linecap="round" stroke="#f1decb" stroke-width="24.7" data-part="arm"/><line x1="470" y1="199" x2="477" y2="184" stroke-linecap="round" stroke="#1a1a1a" stroke-width="36.6" data-part="ink"/><line x1="470" y1="199" x2="477" y2="184" stroke-linecap="round" stroke="#4a637f" stroke-width="28.6" data-part="sleeve"/><circle cx="490" cy="155" r="13.6" fill="#f1decb" stroke="#1a1a1a" stroke-width="5.0" data-part="hand"/>
<line x1="440" y1="197" x2="440" y2="166" stroke-linecap="round" stroke="#1a1a1a" stroke-width="25.6" data-part="ink"/><line x1="440" y1="197" x2="440" y2="166" stroke-linecap="round" stroke="#f1decb" stroke-width="17.6" data-part="neck"/>
<g id="h2" data-fig="ma" data-part="head"><g transform="translate(333.52 106.56) scale(1.664)"><defs><filter id="oban8230" x="-45%" y="-45%" width="190%" height="190%"><feMorphology in="SourceAlpha" operator="dilate" radius="1.0000" result="d"/><feFlood flood-color="#1a1a1a" result="ink"/><feComposite in="ink" in2="d" operator="in"/></filter><defs></defs><g id="haan8230"><g transform="matrix(1.0207,0,0,1.0207,-1.32509,-2.64997)"><g transform="matrix(1,0,0,1,28.02,0)"><path d="M35.98,57.47C33.06,57.47 30.69,55.1 30.69,52.18L30.69,47.66L41.27,47.66L41.27,52.18C41.27,55.1 38.9,57.47 35.98,57.47Z" fill="#f1decb" fill-rule="nonzero" /></g></g><g transform="matrix(1.0207,0,0,1.0207,-1.32509,-2.64997)"><g transform="matrix(1,0,0,1,28.02,0)"><path d="M51.89,29.71C51.89,29.71 54.81,30.22 54.81,33.36C54.81,36.13 52.68,37.23 50.55,37.23L50.55,29.72L51.89,29.72L51.89,29.71ZM20.07,29.71C20.07,29.71 17.15,30.22 17.15,33.36C17.15,36.13 19.28,37.23 21.41,37.23L21.41,29.72L20.07,29.72L20.07,29.71Z" fill="#c7a186" fill-rule="nonzero" /></g></g><g transform="matrix(1.0207,0,0,1.0207,-1.32509,-2.64997)"><g transform="matrix(1,0,0,1,28.02,0)"><path d="M35.98,9.13C23.41,9.13 20.12,18.88 20.12,32.57C20.12,46.77 30.892,50.44 35.98,50.44C41.068,50.44 51.84,46.87 51.84,32.57C51.85,18.88 48.56,9.13 35.98,9.13Z" fill="#f1decb" fill-rule="nonzero" /></g></g><g transform="matrix(1.0207,0,0,1.0207,-1.32509,-2.64997)"><g transform="matrix(1,0,0,1,28.02,0)"><path d="M38.2,38.59C37.42,38.81 36.61,38.92 35.98,38.92C35.35,38.92 34.54,38.81 33.76,38.59C33.43,38.5 33.29,38.81 33.41,39.02C33.66,39.46 34.66,40.34 35.97,40.34C37.29,40.34 38.29,39.46 38.53,39.02C38.67,38.81 38.53,38.5 38.2,38.59Z" fill="#c7a186" fill-rule="nonzero" /></g></g><path d="M42.3 14.8 L41.6 24.5 L48.9 19.2 Z" fill="#2e2b36" stroke="#1a1a1a" stroke-width="1.2" stroke-linejoin="round"/><path d="M84.7 14.8 L85.4 24.5 L78.1 19.2 Z" fill="#2e2b36" stroke="#1a1a1a" stroke-width="1.2" stroke-linejoin="round"/><path d="M 42.4 18.0 L 41.2 9.3 L 48.6 7.9 L 50.9 -0.6 L 58.2 2.2 L 63.5 -4.1 L 68.8 2.2 L 76.1 -0.6 L 78.4 7.9 L 85.8 9.3 L 84.6 18.0 L 78.9 19.2 L 73.6 26.7 L 68.2 19.2 L 63.5 27.7 L 58.8 19.2 L 53.4 26.7 L 48.1 19.2 Z" fill="#2e2b36" stroke="#1a1a1a" stroke-width="1.6" stroke-linejoin="round"/><path d="M53.30 28.28 C54.20 26.58 57.20 26.58 58.10 28.28 C57.90 30.88 53.50 30.88 53.30 28.28 Z" fill="#FFFFFF" stroke="#1a1a1a" stroke-width="0.6"/><circle cx="56.30" cy="27.88" r="0.55" fill="#FFFFFF"/><path d="M53.10 26.48 L58.10 26.18 L58.10 26.88 L53.10 27.18 Z" fill="#1a1a1a"/><path d="M53.50 25.28 L57.70 24.98 L57.70 25.58 L53.50 25.88 Z" fill="#1a1a1a"/><path d="M68.90 28.28 C69.80 26.58 72.80 26.58 73.70 28.28 C73.50 30.88 69.10 30.88 68.90 28.28 Z" fill="#FFFFFF" stroke="#1a1a1a" stroke-width="0.6"/><circle cx="71.90" cy="27.88" r="0.55" fill="#FFFFFF"/><path d="M68.70 26.48 L73.70 26.18 L73.70 26.88 L68.70 27.18 Z" fill="#1a1a1a"/><path d="M69.10 25.28 L73.30 24.98 L73.30 25.58 L69.10 25.88 Z" fill="#1a1a1a"/><path d="M63.20 31.48 L64.50 32.28 L63.10 32.58" fill="none" stroke="#1a1a1a" stroke-width="0.5"/><path d="M61.90 34.08 L65.10 34.08" fill="none" stroke="#1a1a1a" stroke-width="0.7" stroke-linecap="round"/></g></defs><use href="#haan8230" filter="url(#oban8230)"/><use href="#haan8230"/></g></g>

<line x1="422" y1="116" x2="438" y2="124" stroke="#1a1a1a" stroke-width="5" stroke-linecap="round"/>
<line x1="458" y1="116" x2="442" y2="124" stroke="#1a1a1a" stroke-width="5" stroke-linecap="round"/>
<line x1="470" y1="102" x2="488" y2="84" stroke="#d0211c" stroke-width="4" stroke-linecap="round"/>
<line x1="488" y1="102" x2="470" y2="84" stroke="#d0211c" stroke-width="4" stroke-linecap="round"/>
<line x1="479" y1="98" x2="479" y2="80" stroke="#d0211c" stroke-width="4" stroke-linecap="round"/>
<line x1="466" y1="89" x2="492" y2="89" stroke="#d0211c" stroke-width="4" stroke-linecap="round"/>
<line x1="470" y1="199" x2="490" y2="125" stroke="#c0392b" stroke-width="13.0" stroke-linecap="round"/>

<line x1="233" y1="303" x2="224" y2="455" stroke-linecap="round" stroke="#1a1a1a" stroke-width="38.4" data-part="ink"/><line x1="233" y1="303" x2="224" y2="455" stroke-linecap="round" stroke="#565660" stroke-width="30.4" data-part="leg"/>
<line x1="263" y1="303" x2="272" y2="455" stroke-linecap="round" stroke="#1a1a1a" stroke-width="38.4" data-part="ink"/><line x1="263" y1="303" x2="272" y2="455" stroke-linecap="round" stroke="#565660" stroke-width="30.4" data-part="leg"/>
<ellipse cx="224" cy="460" rx="20" ry="11" fill="#2e3547" stroke="#1a1a1a" stroke-width="5.0" data-part="shoe"/>
<ellipse cx="272" cy="460" rx="20" ry="11" fill="#2e3547" stroke="#1a1a1a" stroke-width="5.0" data-part="shoe"/>
<polygon data-part="top" points="206,197 290,197 287,305 209,305" fill="#5d7a99" stroke="#1a1a1a" stroke-width="6" stroke-linejoin="round"/>
<line x1="218" y1="199" x2="204" y2="305" stroke-linecap="round" stroke="#1a1a1a" stroke-width="32.7" data-part="ink"/><line x1="218" y1="199" x2="204" y2="305" stroke-linecap="round" stroke="#f1decb" stroke-width="24.7" data-part="arm"/><line x1="218" y1="199" x2="213" y2="236" stroke-linecap="round" stroke="#1a1a1a" stroke-width="36.6" data-part="ink"/><line x1="218" y1="199" x2="213" y2="236" stroke-linecap="round" stroke="#4a637f" stroke-width="28.6" data-part="sleeve"/><circle cx="204" cy="305" r="13.6" fill="#f1decb" stroke="#1a1a1a" stroke-width="5.0" data-part="hand"/>
<line x1="278" y1="199" x2="306" y2="199" stroke-linecap="round" stroke="#1a1a1a" stroke-width="32.7" data-part="ink"/><line x1="278" y1="199" x2="306" y2="199" stroke-linecap="round" stroke="#f1decb" stroke-width="24.7" data-part="arm"/><line x1="278" y1="199" x2="288" y2="199" stroke-linecap="round" stroke="#1a1a1a" stroke-width="36.6" data-part="ink"/><line x1="278" y1="199" x2="288" y2="199" stroke-linecap="round" stroke="#4a637f" stroke-width="28.6" data-part="sleeve"/><circle cx="306" cy="199" r="13.6" fill="#f1decb" stroke="#1a1a1a" stroke-width="5.0" data-part="hand"/>
<line x1="248" y1="197" x2="248" y2="166" stroke-linecap="round" stroke="#1a1a1a" stroke-width="25.6" data-part="ink"/><line x1="248" y1="197" x2="248" y2="166" stroke-linecap="round" stroke="#f1decb" stroke-width="17.6" data-part="neck"/>
<g id="h3" data-fig="ma" data-part="head"><g transform="translate(141.52 106.56) scale(1.664)"><defs><filter id="oban8229" x="-45%" y="-45%" width="190%" height="190%"><feMorphology in="SourceAlpha" operator="dilate" radius="1.0000" result="d"/><feFlood flood-color="#1a1a1a" result="ink"/><feComposite in="ink" in2="d" operator="in"/></filter><defs></defs><g id="haan8229"><g transform="matrix(1.0207,0,0,1.0207,-1.32509,-2.64997)"><g transform="matrix(1,0,0,1,28.02,0)"><path d="M35.98,57.47C33.06,57.47 30.69,55.1 30.69,52.18L30.69,47.66L41.27,47.66L41.27,52.18C41.27,55.1 38.9,57.47 35.98,57.47Z" fill="#f1decb" fill-rule="nonzero" /></g></g><g transform="matrix(1.0207,0,0,1.0207,-1.32509,-2.64997)"><g transform="matrix(1,0,0,1,28.02,0)"><path d="M51.89,29.71C51.89,29.71 54.81,30.22 54.81,33.36C54.81,36.13 52.68,37.23 50.55,37.23L50.55,29.72L51.89,29.72L51.89,29.71ZM20.07,29.71C20.07,29.71 17.15,30.22 17.15,33.36C17.15,36.13 19.28,37.23 21.41,37.23L21.41,29.72L20.07,29.72L20.07,29.71Z" fill="#c7a186" fill-rule="nonzero" /></g></g><g transform="matrix(1.0207,0,0,1.0207,-1.32509,-2.64997)"><g transform="matrix(1,0,0,1,28.02,0)"><path d="M35.98,9.13C23.41,9.13 20.12,18.88 20.12,32.57C20.12,46.77 30.892,50.44 35.98,50.44C41.068,50.44 51.84,46.87 51.84,32.57C51.85,18.88 48.56,9.13 35.98,9.13Z" fill="#f1decb" fill-rule="nonzero" /></g></g><g transform="matrix(1.0207,0,0,1.0207,-1.32509,-2.64997)"><g transform="matrix(1,0,0,1,28.02,0)"><path d="M38.2,38.59C37.42,38.81 36.61,38.92 35.98,38.92C35.35,38.92 34.54,38.81 33.76,38.59C33.43,38.5 33.29,38.81 33.41,39.02C33.66,39.46 34.66,40.34 35.97,40.34C37.29,40.34 38.29,39.46 38.53,39.02C38.67,38.81 38.53,38.5 38.2,38.59Z" fill="#c7a186" fill-rule="nonzero" /></g></g><path d="M42.3 14.8 L41.6 24.5 L48.9 19.2 Z" fill="#2e2b36" stroke="#1a1a1a" stroke-width="1.2" stroke-linejoin="round"/><path d="M84.7 14.8 L85.4 24.5 L78.1 19.2 Z" fill="#2e2b36" stroke="#1a1a1a" stroke-width="1.2" stroke-linejoin="round"/><path d="M 42.4 18.0 L 41.2 9.3 L 48.6 7.9 L 50.9 -0.6 L 58.2 2.2 L 63.5 -4.1 L 68.8 2.2 L 76.1 -0.6 L 78.4 7.9 L 85.8 9.3 L 84.6 18.0 L 78.9 19.2 L 73.6 26.7 L 68.2 19.2 L 63.5 27.7 L 58.8 19.2 L 53.4 26.7 L 48.1 19.2 Z" fill="#2e2b36" stroke="#1a1a1a" stroke-width="1.6" stroke-linejoin="round"/><path d="M53.30 28.28 C54.20 26.58 57.20 26.58 58.10 28.28 C57.90 30.88 53.50 30.88 53.30 28.28 Z" fill="#FFFFFF" stroke="#1a1a1a" stroke-width="0.6"/><circle cx="56.30" cy="27.88" r="0.55" fill="#FFFFFF"/><path d="M53.10 26.48 L58.10 26.18 L58.10 26.88 L53.10 27.18 Z" fill="#1a1a1a"/><path d="M53.50 25.28 L57.70 24.98 L57.70 25.58 L53.50 25.88 Z" fill="#1a1a1a"/><path d="M68.90 28.28 C69.80 26.58 72.80 26.58 73.70 28.28 C73.50 30.88 69.10 30.88 68.90 28.28 Z" fill="#FFFFFF" stroke="#1a1a1a" stroke-width="0.6"/><circle cx="71.90" cy="27.88" r="0.55" fill="#FFFFFF"/><path d="M68.70 26.48 L73.70 26.18 L73.70 26.88 L68.70 27.18 Z" fill="#1a1a1a"/><path d="M69.10 25.28 L73.30 24.98 L73.30 25.58 L69.10 25.88 Z" fill="#1a1a1a"/><path d="M63.20 31.48 L64.50 32.28 L63.10 32.58" fill="none" stroke="#1a1a1a" stroke-width="0.5"/><path d="M61.90 34.08 L65.10 34.08" fill="none" stroke="#1a1a1a" stroke-width="0.7" stroke-linecap="round"/></g></defs><use href="#haan8229" filter="url(#oban8229)"/><use href="#haan8229"/></g></g>




<rect x="292" y="189" width="39" height="39" rx="8" fill="#f1decb" stroke="#1a1a1a" stroke-width="3"/>
<rect x="294" y="168" width="8" height="23" rx="3" fill="#f1decb" stroke="#1a1a1a" stroke-width="2"/>
<rect x="304" y="168" width="8" height="23" rx="3" fill="#f1decb" stroke="#1a1a1a" stroke-width="2"/>
<rect x="315" y="168" width="8" height="23" rx="3" fill="#f1decb" stroke="#1a1a1a" stroke-width="2"/>
<rect x="325" y="168" width="8" height="23" rx="3" fill="#f1decb" stroke="#1a1a1a" stroke-width="2"/>
<rect x="281" y="199" width="16" height="14" rx="4" fill="#f1decb" stroke="#1a1a1a" stroke-width="2"/>
<path d="M 176 212.8 L 218.32 223.84 L 218.32 271.68 Q 218.32 306.64 176 323.2 Q 133.68 306.64 133.68 271.68 L 133.68 223.84 Z" fill="#2f9e4a" stroke="#1a1a1a" stroke-width="4" stroke-linejoin="round"/>
<line x1="158" y1="264" x2="172" y2="283" stroke="#ffffff" stroke-width="7.36" stroke-linecap="round"/>
<line x1="172" y1="283" x2="198" y2="248" stroke="#ffffff" stroke-width="7.36" stroke-linecap="round"/>
</g></svg>
