<svg xmlns="http://www.w3.org/2000/svg" viewBox="0 0 290 240" width="290" height="240" data-copyright="© 2026 Sensory App House"><!--SAH-COPYRIGHT © 2026 Sensory App House. All rights reserved.--><metadata id="sah-copyright"><rdf:RDF xmlns:rdf="http://www.w3.org/1999/02/22-rdf-syntax-ns#" xmlns:dc="http://purl.org/dc/elements/1.1/" xmlns:cc="http://creativecommons.org/ns#"><cc:Work rdf:about=""><dc:rights><cc:Agent><dc:title>© 2026 Sensory App House. All rights reserved.</dc:title></cc:Agent></dc:rights><dc:creator><cc:Agent><dc:title>Sensory App House (PiCom)</dc:title></cc:Agent></dc:creator><dc:date>2026</dc:date></cc:Work></rdf:RDF></metadata><line x1="20" y1="214" x2="270" y2="214" stroke="#1a1a1a" stroke-width="3"></line><line x1="20" y1="212" x2="270" y2="212" stroke="#9ab85a" stroke-width="4" stroke-linecap="round"></line><circle cx="110" cy="56" r="16" fill="var(--skin-base,#fcd9b8)" stroke="#1a1a1a" stroke-width="3"></circle><path d="M110 72 L110 148" stroke="#5a8acc" stroke-width="12" fill="none" stroke-linecap="round"></path><path d="M110 88 L156 48" stroke="#5a8acc" stroke-width="10" fill="none" stroke-linecap="round"></path><ellipse cx="160" cy="44" rx="9" ry="6" fill="var(--skin-base,#fcd9b8)" stroke="#1a1a1a" stroke-width="2.5"></ellipse><ellipse cx="178" cy="28" rx="18" ry="24" fill="none" stroke="#9d6a3a" stroke-width="5"></ellipse><line x1="160" y1="44" x2="172" y2="36" stroke="#9d6a3a" stroke-width="5" stroke-linecap="round"></line><g stroke="#cdd2da" stroke-width="1.5" opacity="0.8"><line x1="164" y1="14" x2="164" y2="44"></line><line x1="172" y1="10" x2="172" y2="44"></line><line x1="180" y1="10" x2="180" y2="44"></line><line x1="188" y1="14" x2="188" y2="44"></line><line x1="164" y1="18" x2="194" y2="18"></line><line x1="162" y1="28" x2="196" y2="28"></line><line x1="164" y1="38" x2="194" y2="38"></line></g><path d="M110 88 L72 104" stroke="#5a8acc" stroke-width="10" fill="none" stroke-linecap="round"></path><ellipse cx="68" cy="108" rx="9" ry="6" fill="var(--skin-base,#fcd9b8)" stroke="#1a1a1a" stroke-width="2.5"></ellipse><circle cx="222" cy="88" r="10" fill="#ccdd44" stroke="#1a1a1a" stroke-width="2.5"></circle><path d="M110 148 L78 210" stroke="#5a8acc" stroke-width="11" fill="none" stroke-linecap="round"></path><ellipse cx="76" cy="212" rx="11" ry="7" fill="var(--skin-base,#fcd9b8)" stroke="#1a1a1a" stroke-width="2.5"></ellipse><path d="M110 148 L152 210" stroke="#5a8acc" stroke-width="11" fill="none" stroke-linecap="round"></path><ellipse cx="154" cy="212" rx="11" ry="7" fill="var(--skin-base,#fcd9b8)" stroke="#1a1a1a" stroke-width="2.5"></ellipse></svg>