<svg xmlns="http://www.w3.org/2000/svg" viewBox="0 0 290 240" width="290" height="240" data-copyright="© 2026 Sensory App House"><g transform="translate(0.000,24.000) scale(0.9)"><!--SAH-COPYRIGHT © 2026 Sensory App House. All rights reserved.--><metadata id="sah-copyright"><rdf:RDF xmlns:rdf="http://www.w3.org/1999/02/22-rdf-syntax-ns#" xmlns:dc="http://purl.org/dc/elements/1.1/" xmlns:cc="http://creativecommons.org/ns#"><cc:Work rdf:about=""><dc:rights><cc:Agent><dc:title>© 2026 Sensory App House. All rights reserved.</dc:title></cc:Agent></dc:rights><dc:creator><cc:Agent><dc:title>Sensory App House (PiCom)</dc:title></cc:Agent></dc:creator><dc:date>2026</dc:date></cc:Work></rdf:RDF></metadata><g fill="#c85a4a" stroke="#1a1a1a" stroke-width="3"><path d="M70 40 Q50 60 56 86 Q62 104 84 96 Q92 70 86 50 Q80 38 70 40z"></path><path d="M220 40 Q240 60 234 86 Q228 104 206 96 Q198 70 204 50 Q210 38 220 40z"></path></g><g fill="none" stroke="#e8b8a8" stroke-width="10" stroke-linecap="round"><path d="M76 96 Q90 150 130 180"></path><path d="M214 96 Q200 150 160 180"></path></g><path d="M118 176 Q145 168 172 176 L168 200 Q145 208 122 200z" fill="#f4c84a" stroke="#1a1a1a" stroke-width="3"></path></g><g transform="translate(0,0) scale(0.5664,0.4688) translate(360 8) scale(0.2812)"><defs><radialGradient id="pl656" cx="40%" cy="35%" r="65%"><stop offset="0%" stop-color="#7ed957"/><stop offset="100%" stop-color="#3aa324"/></radialGradient></defs><path d="M 256.0,56.0 L 281.0,212.7 L 429.2,156.0 L 306.0,256.0 L 429.2,356.0 L 281.0,299.3 L 256.0,456.0 L 231.0,299.3 L 82.8,356.0 L 206.0,256.0 L 82.8,156.0 L 231.0,212.7 Z" fill="url(#pl656)" stroke="#1a1a1a" stroke-width="14" stroke-linejoin="round"/></g></svg>