<svg xmlns="http://www.w3.org/2000/svg" viewBox="0 0 512 512" data-copyright="© 2026 Sensory App House"><!--SAH-COPYRIGHT © 2026 Sensory App House. All rights reserved.--><metadata id="sah-copyright"><rdf:RDF xmlns:rdf="http://www.w3.org/1999/02/22-rdf-syntax-ns#" xmlns:dc="http://purl.org/dc/elements/1.1/" xmlns:cc="http://creativecommons.org/ns#"><cc:Work rdf:about=""><dc:rights><cc:Agent><dc:title>© 2026 Sensory App House. All rights reserved.</dc:title></cc:Agent></dc:rights><dc:creator><cc:Agent><dc:title>Sensory App House (PiCom)</dc:title></cc:Agent></dc:creator><dc:date>2026</dc:date></cc:Work></rdf:RDF></metadata><metadata id="sah">{"v":1,"fig":[["h1","mc"],["h2","mc"]]}</metadata><g data-fit="1" transform="translate(256 256) scale(0.9881) translate(-286.50 -284.00)">
<rect x="223" y="286" width="66" height="104" rx="0" fill="#f1c9a5" stroke="#1a1a1a" stroke-width="5"/>
<path d="M 88 512 Q 104 360 200 352 L 312 352 Q 408 360 424 512 Z" fill="#5d7a99" stroke="#1a1a1a" stroke-width="6" stroke-linejoin="round"/>
<rect x="223" y="286" width="66" height="40" rx="0" fill="#f1c9a5" stroke="#1a1a1a" stroke-width="0"/>
<circle id="h1" data-fig="mc" cx="140" cy="224" r="22" fill="#f1c9a5" stroke="#1a1a1a" stroke-width="5"/>
<circle id="h2" data-fig="mc" cx="372" cy="224" r="22" fill="#f1c9a5" stroke="#1a1a1a" stroke-width="5"/>
<g data-part="hair-back"></g><g data-fig="m" data-part="face"><g transform="translate(-218.30 54.04) scale(7.410 5.692)"><g transform="matrix(1.0207,0,0,1.0207,-1.32509,-2.64997)"><g transform="matrix(1,0,0,1,28.02,0)"><path stroke="#1a1a1a" stroke-width="0.76" stroke-linejoin="round" d="M35.98,57.47C33.06,57.47 30.69,55.1 30.69,52.18L30.69,47.66L41.27,47.66L41.27,52.18C41.27,55.1 38.9,57.47 35.98,57.47Z" fill="#f1decb" fill-rule="nonzero" /></g></g><g transform="matrix(1.0207,0,0,1.0207,-1.32509,-2.64997)"><g transform="matrix(1,0,0,1,28.02,0)"><path stroke="#1a1a1a" stroke-width="0.76" stroke-linejoin="round" d="M35.98,9.13C23.41,9.13 20.12,18.88 20.12,32.57C20.12,46.77 30.892,50.44 35.98,50.44C41.068,50.44 51.84,46.87 51.84,32.57C51.85,18.88 48.56,9.13 35.98,9.13Z" fill="#f1decb" fill-rule="nonzero" /></g></g></g></g><g data-part="hair"><g transform="translate(-105.64 93.74) scale(5.650 1.887)"><defs><filter id="oban8128" x="-45%" y="-45%" width="190%" height="190%"><feMorphology in="SourceAlpha" operator="dilate" radius="1.0000" result="d"/><feFlood flood-color="#1a1a1a" result="ink"/><feComposite in="ink" in2="d" operator="in"/></filter><defs></defs><g id="haan8128"><path d="M 42.4 18.0 L 41.2 9.3 L 48.6 7.9 L 50.9 -0.6 L 58.2 2.2 L 63.5 -4.1 L 68.8 2.2 L 76.1 -0.6 L 78.4 7.9 L 85.8 9.3 L 84.6 18.0 L 78.9 19.2 L 73.6 26.7 L 68.2 19.2 L 63.5 27.7 L 58.8 19.2 L 53.4 26.7 L 48.1 19.2 Z" fill="#2e2b36" stroke="#1a1a1a" stroke-width="1.6" stroke-linejoin="round"/></g></defs><use href="#haan8128" filter="url(#oban8128)"/><use href="#haan8128"/></g></g>

<path d="M 194 166 Q 212 152 230 162" fill="none" stroke="#1a1a1a" stroke-width="5" stroke-linejoin="round"/>
<path d="M 282 162 Q 300 152 318 166" fill="none" stroke="#1a1a1a" stroke-width="5" stroke-linejoin="round"/>
<circle cx="212" cy="202" r="18" fill="#fff" stroke="#1a1a1a" stroke-width="3"/>
<circle cx="300" cy="202" r="18" fill="#fff" stroke="#1a1a1a" stroke-width="3"/>
<circle cx="214" cy="206" r="7" fill="#1a1a1a" stroke="#1a1a1a" stroke-width="0"/>
<circle cx="302" cy="206" r="7" fill="#1a1a1a" stroke="#1a1a1a" stroke-width="0"/>
<path d="M 236 274 Q 256 286 276 274" fill="none" stroke="#1a1a1a" stroke-width="5" stroke-linejoin="round"/>


<!-- GIVE ME: two open palms held up toward the viewer, an object arriving into them -->
<g transform="translate(400 124) scale(1.22) translate(-400 -124)">
<!-- generic object dropping in from above -->

<!-- motion arrow: object coming down INTO the open hands (filled arrowhead) -->


<!-- two cupped open hands, palms up, side by side -->
<g stroke="#1a1a1a" stroke-width="4" stroke-linejoin="round" stroke-linecap="round">
<!-- left forearm -->

<!-- left palm cupped (concave up) -->

<!-- left fingers, splayed up to catch -->



<!-- right forearm -->

<!-- right palm cupped (mirror) -->

<!-- right fingers, splayed up to catch -->



</g>
</g>
</g><ellipse cx="400" cy="120" rx="86" ry="62" fill="#fff" stroke="#1a1a1a" stroke-width="4"/><polygon points="332,164 284,226 358,180" fill="#fff" stroke="#1a1a1a" stroke-width="4" stroke-linejoin="round"/><circle cx="400" cy="80" r="17" fill="#f5a623" stroke="#1a1a1a" stroke-width="4"/><line x1="400" y1="99" x2="400" y2="108" stroke="#1a1a1a" stroke-width="18.0" stroke-linecap="round"/><line x1="400" y1="99" x2="400" y2="108" stroke="#2f9e4a" stroke-width="12.5" stroke-linecap="round"/><polygon points="400,122 386,100 414,100" fill="#2f9e4a" stroke="#2f9e4a" stroke-width="2" stroke-linejoin="round"/><path d="M 350 168 L 364 146" stroke-width="15" fill="none"/><path d="M 348 142 Q 352 162 372 164 Q 388 164 390 148 Q 384 150 372 150 Q 358 150 348 142 Z" fill="#f1c9a5"/><line x1="350" y1="142" x2="344" y2="124" stroke="#f1c9a5" stroke-width="9"/><line x1="360" y1="146" x2="357" y2="126" stroke="#f1c9a5" stroke-width="9"/><line x1="372" y1="148" x2="372" y2="128" stroke="#f1c9a5" stroke-width="9"/><path d="M 450 168 L 436 146" stroke-width="15" fill="none"/><path d="M 452 142 Q 448 162 428 164 Q 412 164 410 148 Q 416 150 428 150 Q 442 150 452 142 Z" fill="#eabb91"/><line x1="450" y1="142" x2="456" y2="124" stroke="#eabb91" stroke-width="9"/><line x1="440" y1="146" x2="443" y2="126" stroke="#eabb91" stroke-width="9"/><line x1="428" y1="148" x2="428" y2="128" stroke="#eabb91" stroke-width="9"/></svg>