<svg xmlns="http://www.w3.org/2000/svg" viewBox="0 0 512 512" data-copyright="© 2026 Sensory App House"><!--SAH-COPYRIGHT © 2026 Sensory App House. All rights reserved.--><metadata id="sah-copyright"><rdf:RDF xmlns:rdf="http://www.w3.org/1999/02/22-rdf-syntax-ns#" xmlns:dc="http://purl.org/dc/elements/1.1/" xmlns:cc="http://creativecommons.org/ns#"><cc:Work rdf:about=""><dc:rights><cc:Agent><dc:title>© 2026 Sensory App House. All rights reserved.</dc:title></cc:Agent></dc:rights><dc:creator><cc:Agent><dc:title>Sensory App House (PiCom)</dc:title></cc:Agent></dc:creator><dc:date>2026</dc:date></cc:Work></rdf:RDF></metadata><metadata id="sah">{"v":1,"fig":[["h1","mc"]]}</metadata><g data-fit="1" transform="translate(256 256) scale(1.2481) translate(-309.00 -281.50)">
<line x1="185" y1="345" x2="179" y2="455" stroke-linecap="round" stroke="#1a1a1a" stroke-width="31.5" data-part="ink"/><line x1="185" y1="345" x2="179" y2="455" stroke-linecap="round" stroke="#565660" stroke-width="23.5" data-part="leg"/>
<line x1="207" y1="345" x2="213" y2="455" stroke-linecap="round" stroke="#1a1a1a" stroke-width="31.5" data-part="ink"/><line x1="207" y1="345" x2="213" y2="455" stroke-linecap="round" stroke="#565660" stroke-width="23.5" data-part="leg"/>
<ellipse cx="179" cy="460" rx="14" ry="8" fill="#2e3547" stroke="#1a1a1a" stroke-width="5.0" data-part="shoe"/>
<ellipse cx="213" cy="460" rx="14" ry="8" fill="#2e3547" stroke="#1a1a1a" stroke-width="5.0" data-part="shoe"/>
<polygon data-part="top" points="166,269 226,269 225,347 167,347" fill="#5d7a99" stroke="#1a1a1a" stroke-width="6" stroke-linejoin="round"/>
<polygon data-part="lower" points="167,347 225,347 225,372 167,372" fill="#565660" stroke="#1a1a1a" stroke-width="6" stroke-linejoin="round"/>
<line x1="174" y1="271" x2="160" y2="347" stroke-linecap="round" stroke="#1a1a1a" stroke-width="25.8" data-part="ink"/><line x1="174" y1="271" x2="160" y2="347" stroke-linecap="round" stroke="#f1decb" stroke-width="17.8" data-part="arm"/><line x1="174" y1="271" x2="169" y2="298" stroke-linecap="round" stroke="#1a1a1a" stroke-width="28.6" data-part="ink"/><line x1="174" y1="271" x2="169" y2="298" stroke-linecap="round" stroke="#4a637f" stroke-width="20.6" data-part="sleeve"/><circle cx="160" cy="347" r="9.8" fill="#f1decb" stroke="#1a1a1a" stroke-width="5.0" data-part="hand"/>
<line x1="218" y1="271" x2="232" y2="347" stroke-linecap="round" stroke="#1a1a1a" stroke-width="25.8" data-part="ink"/><line x1="218" y1="271" x2="232" y2="347" stroke-linecap="round" stroke="#f1decb" stroke-width="17.8" data-part="arm"/><line x1="218" y1="271" x2="223" y2="298" stroke-linecap="round" stroke="#1a1a1a" stroke-width="28.6" data-part="ink"/><line x1="218" y1="271" x2="223" y2="298" stroke-linecap="round" stroke="#4a637f" stroke-width="20.6" data-part="sleeve"/><circle cx="232" cy="347" r="9.8" fill="#f1decb" stroke="#1a1a1a" stroke-width="5.0" data-part="hand"/>
<line x1="196" y1="269" x2="196" y2="246" stroke-linecap="round" stroke="#1a1a1a" stroke-width="20.6" data-part="ink"/><line x1="196" y1="269" x2="196" y2="246" stroke-linecap="round" stroke="#f1decb" stroke-width="12.6" data-part="neck"/>
<g id="h1" data-fig="mc" data-part="head"><g transform="translate(118.80 203.43) scale(1.206)"><defs><filter id="oban2433" x="-45%" y="-45%" width="190%" height="190%"><feMorphology in="SourceAlpha" operator="dilate" radius="1.0000" result="d"/><feFlood flood-color="#1a1a1a" result="ink"/><feComposite in="ink" in2="d" operator="in"/></filter><defs></defs><g id="haan2433"><g transform="matrix(1.0207,0,0,1.0207,-1.32509,-2.64997)"><g transform="matrix(1,0,0,1,28.02,0)"><path d="M35.98,57.47C33.06,57.47 30.69,55.1 30.69,52.18L30.69,47.66L41.27,47.66L41.27,52.18C41.27,55.1 38.9,57.47 35.98,57.47Z" fill="#f1decb" fill-rule="nonzero" /></g></g><g transform="matrix(1.0207,0,0,1.0207,-1.32509,-2.64997)"><g transform="matrix(1,0,0,1,28.02,0)"><path d="M51.89,29.71C51.89,29.71 54.81,30.22 54.81,33.36C54.81,36.13 52.68,37.23 50.55,37.23L50.55,29.72L51.89,29.72L51.89,29.71ZM20.07,29.71C20.07,29.71 17.15,30.22 17.15,33.36C17.15,36.13 19.28,37.23 21.41,37.23L21.41,29.72L20.07,29.72L20.07,29.71Z" fill="#c7a186" fill-rule="nonzero" /></g></g><g transform="matrix(1.0207,0,0,1.0207,-1.32509,-2.64997)"><g transform="matrix(1,0,0,1,28.02,0)"><path d="M35.98,9.13C23.41,9.13 20.12,18.88 20.12,32.57C20.12,46.77 30.892,50.44 35.98,50.44C41.068,50.44 51.84,46.87 51.84,32.57C51.85,18.88 48.56,9.13 35.98,9.13Z" fill="#f1decb" fill-rule="nonzero" /></g></g><g transform="matrix(1.0207,0,0,1.0207,-1.32509,-2.64997)"><g transform="matrix(1,0,0,1,28.02,0)"><path d="M38.2,38.59C37.42,38.81 36.61,38.92 35.98,38.92C35.35,38.92 34.54,38.81 33.76,38.59C33.43,38.5 33.29,38.81 33.41,39.02C33.66,39.46 34.66,40.34 35.97,40.34C37.29,40.34 38.29,39.46 38.53,39.02C38.67,38.81 38.53,38.5 38.2,38.59Z" fill="#c7a186" fill-rule="nonzero" /></g></g><path d="M42.3 14.8 L41.6 24.5 L48.9 19.2 Z" fill="#2e2b36" stroke="#1a1a1a" stroke-width="1.2" stroke-linejoin="round"/><path d="M84.7 14.8 L85.4 24.5 L78.1 19.2 Z" fill="#2e2b36" stroke="#1a1a1a" stroke-width="1.2" stroke-linejoin="round"/><path d="M 42.4 18.0 L 41.2 9.3 L 48.6 7.9 L 50.9 -0.6 L 58.2 2.2 L 63.5 -4.1 L 68.8 2.2 L 76.1 -0.6 L 78.4 7.9 L 85.8 9.3 L 84.6 18.0 L 78.9 19.2 L 73.6 26.7 L 68.2 19.2 L 63.5 27.7 L 58.8 19.2 L 53.4 26.7 L 48.1 19.2 Z" fill="#2e2b36" stroke="#1a1a1a" stroke-width="1.6" stroke-linejoin="round"/><path d="M53.30 28.28 C54.20 26.58 57.20 26.58 58.10 28.28 C57.90 30.88 53.50 30.88 53.30 28.28 Z" fill="#FFFFFF" stroke="#1a1a1a" stroke-width="0.6"/><circle cx="56.30" cy="27.88" r="0.55" fill="#FFFFFF"/><path d="M53.10 26.48 L58.10 26.18 L58.10 26.88 L53.10 27.18 Z" fill="#1a1a1a"/><path d="M53.50 25.28 L57.70 24.98 L57.70 25.58 L53.50 25.88 Z" fill="#1a1a1a"/><path d="M68.90 28.28 C69.80 26.58 72.80 26.58 73.70 28.28 C73.50 30.88 69.10 30.88 68.90 28.28 Z" fill="#FFFFFF" stroke="#1a1a1a" stroke-width="0.6"/><circle cx="71.90" cy="27.88" r="0.55" fill="#FFFFFF"/><path d="M68.70 26.48 L73.70 26.18 L73.70 26.88 L68.70 27.18 Z" fill="#1a1a1a"/><path d="M69.10 25.28 L73.30 24.98 L73.30 25.58 L69.10 25.88 Z" fill="#1a1a1a"/><path d="M63.20 31.48 L64.50 32.28 L63.10 32.58" fill="none" stroke="#1a1a1a" stroke-width="0.5"/><path d="M61.90 34.08 L65.10 34.08" fill="none" stroke="#1a1a1a" stroke-width="0.7" stroke-linecap="round"/></g></defs><use href="#haan2433" filter="url(#oban2433)"/><use href="#haan2433"/></g></g>

<circle cx="388.0" cy="176.0" r="72.0" fill="#fff" stroke="#1a1a1a" stroke-width="6"/>
<line x1="388" y1="120" x2="388" y2="108" stroke="#1a1a1a" stroke-width="6" stroke-linecap="round"/>
<line x1="419" y1="122" x2="422" y2="117" stroke="#1a1a1a" stroke-width="3" stroke-linecap="round"/>
<line x1="442" y1="145" x2="447" y2="142" stroke="#1a1a1a" stroke-width="3" stroke-linecap="round"/>
<line x1="444" y1="176" x2="456" y2="176" stroke="#1a1a1a" stroke-width="6" stroke-linecap="round"/>
<line x1="442" y1="207" x2="447" y2="210" stroke="#1a1a1a" stroke-width="3" stroke-linecap="round"/>
<line x1="419" y1="230" x2="422" y2="235" stroke="#1a1a1a" stroke-width="3" stroke-linecap="round"/>
<line x1="388" y1="232" x2="388" y2="244" stroke="#1a1a1a" stroke-width="6" stroke-linecap="round"/>
<line x1="357" y1="230" x2="354" y2="235" stroke="#1a1a1a" stroke-width="3" stroke-linecap="round"/>
<line x1="334" y1="207" x2="329" y2="210" stroke="#1a1a1a" stroke-width="3" stroke-linecap="round"/>
<line x1="332" y1="176" x2="320" y2="176" stroke="#1a1a1a" stroke-width="6" stroke-linecap="round"/>
<line x1="334" y1="145" x2="329" y2="142" stroke="#1a1a1a" stroke-width="3" stroke-linecap="round"/>
<line x1="357" y1="122" x2="354" y2="117" stroke="#1a1a1a" stroke-width="3" stroke-linecap="round"/>
<line x1="388" y1="176" x2="388" y2="140" stroke="#1a1a1a" stroke-width="9" stroke-linecap="round"/>
<line x1="388" y1="176" x2="437" y2="148" stroke="#1a1a1a" stroke-width="6" stroke-linecap="round"/>
<circle cx="388.0" cy="176.0" r="7.0" fill="#1a1a1a" stroke="#1a1a1a" stroke-width="0"/>
<line x1="330" y1="176" x2="347" y2="176" stroke="#1a1a1a" stroke-width="15.0" stroke-linecap="round"/><line x1="330" y1="176" x2="347" y2="176" stroke="#3fae5a" stroke-width="9.5" stroke-linecap="round"/>
<polygon points="363,176 344,166 344,186" fill="#3fae5a" stroke="#3fae5a" stroke-width="2" stroke-linejoin="round"/>
</g></svg>
